<svg width="215" height="124" viewBox="0 0 215 124" fill="none" xmlns="http://www.w3.org/2000/svg">
<g clip-path="url(#clip0_646_12649)">
<path opacity="0.28" d="M107.5 92.4647C166.871 92.4647 215 71.7657 215 46.2323C215 20.6989 166.871 0 107.5 0C48.1294 0 0 20.6989 0 46.2323C0 71.7657 48.1294 92.4647 107.5 92.4647Z" fill="url(#paint0_radial_646_12649)"/>
<path d="M107.5 124L83.9281 116.653C82.8749 116.326 82.8749 112.823 83.9281 112.493L107.5 105.146L131.072 112.493C132.125 112.82 132.125 116.323 131.072 116.653L107.5 124Z" fill="#633572"/>
<path d="M83.0139 109.819C81.9205 109.492 81.9205 105.989 83.0139 105.659L107.5 98.3115L131.985 105.659C133.079 105.986 133.079 109.489 131.985 109.819L107.5 117.166L83.0139 109.819Z" fill="#6A487C"/>
<path d="M82.1001 102.985C80.9666 102.658 80.9666 99.1551 82.1001 98.8254L107.5 91.478L132.899 98.8254C134.033 99.1528 134.033 102.656 132.899 102.985L107.5 110.333L82.1001 102.985Z" fill="#715A86"/>
<path d="M81.1862 96.1515C80.0102 95.824 80.0102 92.3212 81.1862 91.9914L107.5 84.644L133.813 91.9914C134.989 92.3188 134.989 95.8217 133.813 96.1515L107.5 103.499L81.1862 96.1515Z" fill="#786D90"/>
<path d="M80.2725 89.3175C79.0563 88.9901 79.0563 85.4872 80.2725 85.1574L107.5 77.8101L134.727 85.1574C135.944 85.4848 135.944 88.9877 134.727 89.3175L107.5 96.6648L80.2725 89.3175Z" fill="#7F7F9A"/>
<path d="M79.3587 82.484C78.1024 82.1566 78.1024 78.6537 79.3587 78.3239L107.5 70.9766L135.641 78.3239C136.898 78.6513 136.898 82.1542 135.641 82.484L107.5 89.8313L79.3587 82.484Z" fill="#8692A4"/>
<path d="M78.4448 75.6476C77.146 75.3201 77.146 71.8173 78.4448 71.4875L107.5 64.1401L136.555 71.4875C137.854 71.8149 137.854 75.3178 136.555 75.6476L107.5 82.9949L78.4448 75.6476Z" fill="#8CA5AE"/>
<path d="M77.5306 68.8141C76.1916 68.4866 76.1916 64.9838 77.5306 64.654L107.5 57.3066L137.469 64.654C138.808 64.9814 138.808 68.4843 137.469 68.8141L107.5 76.1614L77.5306 68.8141Z" fill="#93B7B8"/>
<path d="M76.6168 61.9801C75.2377 61.6527 75.2377 58.1498 76.6168 57.82L107.5 50.4727L138.383 57.82C139.762 58.1474 139.762 61.6503 138.383 61.9801L107.5 69.3274L76.6168 61.9801Z" fill="#9ACAC2"/>
<path d="M75.7031 55.1466C74.2839 54.8192 74.2839 51.3163 75.7031 50.9865L107.5 43.6392L139.297 50.9865C140.716 51.3139 140.716 54.8168 139.297 55.1466L107.5 62.4939L75.7031 55.1466Z" fill="#A1DCCC"/>
<path d="M107.5 55.6599L74.7892 48.3126C73.3274 47.9852 73.3274 44.4823 74.7892 44.1525L107.5 36.8052L140.211 44.1525C141.672 44.4799 141.672 47.9828 140.211 48.3126L107.5 55.6599Z" fill="#A8EFD6"/>
<path d="M96.6938 64.9269C99.2591 64.9269 101.339 62.8523 101.339 60.2933C101.339 57.7342 99.2591 55.6597 96.6938 55.6597C94.1285 55.6597 92.0488 57.7342 92.0488 60.2933C92.0488 62.8523 94.1285 64.9269 96.6938 64.9269Z" fill="#633572"/>
<path d="M119.187 64.9269C121.752 64.9269 123.832 62.8523 123.832 60.2933C123.832 57.7342 121.752 55.6597 119.187 55.6597C116.622 55.6597 114.542 57.7342 114.542 60.2933C114.542 62.8523 116.622 64.9269 119.187 64.9269Z" fill="#633572"/>
</g>
<defs>
<radialGradient id="paint0_radial_646_12649" cx="0" cy="0" r="1" gradientUnits="userSpaceOnUse" gradientTransform="translate(109.458 52.2748) scale(108.12 45.8695)">
<stop stop-color="white"/>
<stop offset="0.34" stop-color="white" stop-opacity="0.62"/>
<stop offset="0.66" stop-color="white" stop-opacity="0.29"/>
<stop offset="0.89" stop-color="white" stop-opacity="0.08"/>
<stop offset="1" stop-color="white" stop-opacity="0"/>
</radialGradient>
<clipPath id="clip0_646_12649">
<rect width="215" height="124" fill="white"/>
</clipPath>
</defs>
</svg>
